<?xml version="1.0" encoding="utf-8"?>
<!-- Generator: Adobe Illustrator 17.0.0, SVG Export Plug-In . SVG Version: 6.00 Build 0)  -->
<!DOCTYPE svg PUBLIC "-//W3C//DTD SVG 1.1//EN" "http://www.w3.org/Graphics/SVG/1.1/DTD/svg11.dtd">
<svg version="1.1" id="Layer_1" xmlns="http://www.w3.org/2000/svg" xmlns:xlink="http://www.w3.org/1999/xlink" x="0px" y="0px"
	 width="146px" height="48px" viewBox="0 0 146 48" enable-background="new 0 0 146 48" xml:space="preserve">
<g>
	<g>
		<g>
			<path fill="#FFFFFF" d="M21.164,31.977c-0.17-0.11,2.798-6.346,2.697-6.622c-0.104-0.272-3.248-1.272-3.404-1.754
				c-0.155-0.481,6.213-7.719,6.381-7.578c0.164,0.139-2.775,6.418-2.695,6.622c0.08,0.204,3.305,1.245,3.403,1.754
				C27.641,24.912,21.337,32.089,21.164,31.977z"/>
		</g>
	</g>
</g>
<g>
	<g>
		<g>
			<path fill="#FFFFFF" d="M66.915,24c0-2.391,1.811-4.006,4.191-4.006c1.87,0,2.879,1.057,3.379,2.067l-1.718,0.824
				c-0.256-0.615-0.917-1.126-1.661-1.126c-1.264,0-2.159,0.964-2.159,2.241c0,1.266,0.895,2.241,2.159,2.241
				c0.744,0,1.405-0.511,1.661-1.127l1.718,0.813c-0.499,0.987-1.509,2.078-3.379,2.078C68.726,28.006,66.915,26.381,66.915,24z"/>
			<path fill="#FFFFFF" d="M74.787,26.775l1.056-1.555c0.558,0.557,1.416,1.022,2.485,1.022c0.673,0,1.092-0.232,1.092-0.616
				c0-1.021-4.377-0.174-4.377-3.159c0-1.3,1.091-2.461,3.077-2.461c1.242,0,2.322,0.371,3.146,1.08l-1.092,1.498
				c-0.65-0.547-1.497-0.813-2.264-0.813c-0.58,0-0.835,0.197-0.835,0.534c0,0.952,4.377,0.232,4.377,3.111
				c0,1.557-1.15,2.59-3.229,2.59C76.656,28.006,75.565,27.506,74.787,26.775z"/>
			<path fill="#FFFFFF" d="M81.823,26.775l1.056-1.555c0.557,0.557,1.416,1.022,2.484,1.022c0.675,0,1.093-0.232,1.093-0.616
				c0-1.021-4.379-0.174-4.379-3.159c0-1.3,1.092-2.461,3.077-2.461c1.243,0,2.322,0.371,3.148,1.08l-1.092,1.498
				c-0.651-0.547-1.498-0.813-2.264-0.813c-0.58,0-0.836,0.197-0.836,0.534c0,0.952,4.378,0.232,4.378,3.111
				c0,1.557-1.15,2.59-3.229,2.59C83.692,28.006,82.601,27.506,81.823,26.775z"/>
			<g>
				<path fill="#FFFFFF" d="M101.297,27.867v-3.112h-3.215v3.112h-1.997v-7.745h1.997v2.891h3.215v-2.891h1.997v7.745H101.297z"/>
				<path fill="#FFFFFF" d="M104.688,27.867v-7.745h5.678v1.741h-3.68v1.208h3.599v1.741h-3.599v1.313h3.68v1.742H104.688z"/>
				<path fill="#FFFFFF" d="M115.846,27.867l-1.301-2.601h-1.021v2.601h-1.997v-7.745h3.878c1.719,0,2.693,1.138,2.693,2.577
					c0,1.347-0.812,2.067-1.543,2.323l1.578,2.845H115.846z M116.067,22.689c0-0.535-0.43-0.825-0.964-0.825h-1.579v1.661h1.579
					C115.637,23.524,116.067,23.234,116.067,22.689z"/>
				<path fill="#FFFFFF" d="M118.806,24c0-2.357,1.778-4.006,4.146-4.006c2.368,0,4.133,1.649,4.133,4.006
					c0,2.357-1.765,4.005-4.133,4.005C120.584,28.006,118.806,26.357,118.806,24z M125.053,24c0-1.266-0.823-2.241-2.101-2.241
					c-1.278,0-2.113,0.975-2.113,2.241c0,1.254,0.835,2.241,2.113,2.241C124.229,26.241,125.053,25.254,125.053,24z"/>
			</g>
			<g>
				<path fill="#FFFFFF" d="M90.896,27.461c-0.074-0.048,1.214-2.753,1.17-2.873c-0.045-0.118-1.409-0.552-1.477-0.761
					c-0.067-0.209,2.695-3.349,2.768-3.288c0.071,0.06-1.204,2.784-1.169,2.873c0.035,0.088,1.434,0.54,1.476,0.761
					C93.706,24.395,90.971,27.509,90.896,27.461z"/>
			</g>
		</g>
	</g>
</g>
</svg>
