<?xml version="1.0" encoding="utf-8"?>
<!-- Generator: Adobe Illustrator 17.1.0, SVG Export Plug-In . SVG Version: 6.00 Build 0)  -->
<!DOCTYPE svg PUBLIC "-//W3C//DTD SVG 1.1//EN" "http://www.w3.org/Graphics/SVG/1.1/DTD/svg11.dtd">
<svg version="1.1" xmlns="http://www.w3.org/2000/svg" xmlns:xlink="http://www.w3.org/1999/xlink" x="0px" y="0px"
	 viewBox="0 0 1646.9 515.8" enable-background="new 0 0 1646.9 515.8" xml:space="preserve">
<g id="Calque_1">
</g>
<g id="Mode_Isolation">
	<g>
		<g>
			<g>
				<path fill="#FFFFFF" d="M483.1,314.7c-3.3-14.5-9.2-28.1-17.4-40.6l-0.1-0.1c-0.2-0.4-0.5-0.7-0.7-1.1c-1.9-2.8-4-5.7-6.2-8.4
					c-3.3-4.1-6.9-7.9-10.6-11.5c-8.2-7.8-17.4-14.4-27.4-19.7c0.2-0.2,0.3-0.4,0.5-0.7c11.3-15.8,18.7-34.2,21.6-53.3l0.1-1
					c2.1-15.2,1.4-30.5-2.1-45.6l-0.4-1.5l-1.4-0.7c-13.4-6.5-27.7-10.4-42.6-11.7c-0.5,0-1-0.1-1.5-0.1c-3.4-0.3-6.9-0.4-10.4-0.3
					c-5.2,0.1-10.5,0.4-15.6,1.1c-11.2,1.5-22.1,4.6-32.5,9.1c-0.1-0.3-0.1-0.5-0.2-0.8c-5.3-18.7-15.1-36-28.2-50.1l-0.7-0.7
					c-10.5-11.1-23-20.1-37-26.7l-1.4-0.7l-1.4,0.7c-13.4,6.5-25.4,15.2-35.7,26c-0.3,0.4-0.7,0.7-1,1.1c-2.3,2.5-4.6,5.2-6.8,7.9
					c-3.2,4.1-6.2,8.5-8.8,12.9c-5.8,9.7-10.2,20.2-13.1,31.1c-0.3-0.1-0.5-0.2-0.7-0.3c-15.2-6.3-31.2-9.5-47.5-9.5
					c-3.1,0-6.2,0.1-9.3,0.4l-1,0.1c-15.3,1.3-30.1,5.4-43.9,12.2l-1.4,0.7l-0.4,1.6c-3.3,14.5-3.9,29.3-1.9,44.2
					c0.1,0.5,0.1,0.9,0.2,1.4c0.5,3.4,1.2,6.9,2,10.2c1.2,5.1,2.8,10.1,4.6,14.9c4,10.6,9.4,20.5,16.1,29.6
					c-0.2,0.1-0.5,0.3-0.7,0.4c-17,9.3-31.7,22.7-42.6,38.7l-0.6,0.8c-8.5,12.8-14.5,26.9-17.8,42l-0.3,1.6l1,1.2
					c9.3,11.6,20.5,21.4,33.3,29c0.4,0.2,0.8,0.5,1.3,0.7c3,1.7,6.1,3.3,9.3,4.8c4.7,2.2,9.6,4.2,14.5,5.7
					c10.8,3.5,21.9,5.4,33.2,5.9c0,0.3-0.1,0.5-0.1,0.8c-3.3,19.1-2,39,3.7,57.4l0.3,1c4.7,14.6,12,28.1,21.7,40.1l1,1.2h1.6
					c14.9,0,29.5-2.7,43.4-8c0.5-0.2,0.9-0.3,1.4-0.5c3.2-1.3,6.4-2.7,9.5-4.2c4.7-2.3,9.2-4.9,13.6-7.8
					c9.4-6.2,17.9-13.7,25.3-22.3c0.2,0.2,0.3,0.4,0.5,0.6c12.9,14.5,29.2,25.9,47.2,32.9l0.9,0.4c14,5.3,28.8,8.1,43.8,8.1l2.6,0
					l1-1.2c9.3-11.6,16.3-24.7,20.9-38.9c0.1-0.5,0.3-0.9,0.4-1.4c1-3.3,1.9-6.7,2.6-10.1c1.1-5.1,1.9-10.3,2.4-15.5
					c1-11.3,0.4-22.6-1.7-33.7c0.3,0,0.5,0,0.8,0c19.4-1,38.5-6.7,55.2-16.4l0.9-0.5c13.2-7.8,24.8-17.9,34.3-30.1l1-1.3
					L483.1,314.7z M444.8,341.8l-0.8,0.5c-15.8,9.1-33.8,14.5-52.2,15.5c-1.6,0.1-3.2,0.1-4.6,0.2c-1,0-2.1,0-3.1,0
					c-7-0.1-14-0.8-20.8-2.1c-3.7-0.7-7.5-1.6-11.1-2.7c-4.2-1.3-8.4-2.8-12.4-4.5c-8-3.4-15.6-7.8-22.6-12.9
					c-0.6-0.5-1.2-0.9-1.9-1.4c-6.6-5-12.7-10.8-18.1-17.1c-10.5-12.2-18.4-26.7-23-42.2c14.9,6.2,30.6,9.3,46.7,9.3c0,0,0,0,0,0
					c1.5,0,2.9,0,4.4-0.1c8.8-0.3,17.5-1.6,26.1-3.7c0.8-0.2,1.6-0.4,2.4-0.6c8.9-2.4,17.5-5.9,25.6-10.2c4.1-2.2,8.1-4.6,11.9-7.3
					c3.3-2.3,6.5-4.8,9.6-7.4c5.6-4.8,10.8-10.1,15.5-15.8c0.1-0.1,0.2-0.3,0.4-0.4c9.8,5.1,18.8,11.5,26.9,19.2
					c3.5,3.4,6.9,7,10,10.9c2.1,2.6,4.1,5.2,5.9,7.9c0.2,0.3,0.5,0.7,0.8,1.1c7.5,11.3,12.9,23.7,16.1,36.8
					C467.4,325.6,456.9,334.7,444.8,341.8z M381.7,421.8c-0.1,0.4-0.3,0.9-0.4,1.3c-4.2,12.9-10.4,24.9-18.7,35.6
					c-14.1-0.1-27.8-2.6-40.9-7.6l-0.9-0.3c-17-6.7-32.4-17.4-44.6-31.1c-0.4-0.5-0.8-0.9-1.2-1.4l0,0l-1.7-2.1
					c-0.7-0.8-1.3-1.6-1.9-2.4c-4.3-5.5-8.1-11.5-11.3-17.6c-1.7-3.3-3.3-6.8-4.8-10.3c-1.6-4.1-3.1-8.3-4.2-12.5
					c-2.3-8.3-3.6-17-4-25.7c0-0.8-0.1-1.5-0.1-2.3c-0.2-8.3,0.5-16.7,2-24.8c3-15.8,9.4-31,18.6-44.2c4.9,16.7,13.3,32.4,24.6,45.6
					c5.7,6.7,12.2,12.7,19.2,18c0.7,0.5,1.3,1,2,1.5c7.5,5.4,15.5,10,23.9,13.6c4.3,1.8,8.7,3.4,13.1,4.8c3.8,1.1,7.8,2.1,11.7,2.9
					c7.2,1.4,14.7,2.2,22,2.3c0.2,0,0.4,0,0.6,0c2.1,10.8,2.7,21.9,1.8,32.9c-0.4,4.9-1.2,9.8-2.2,14.6
					C383.5,415.4,382.6,418.6,381.7,421.8z M179,459.5c-8.7-11-15.3-23.4-19.5-36.7l-0.3-0.9c-5.4-17.4-6.6-36.2-3.5-54.3
					c0.3-1.6,0.6-3.1,0.9-4.6c0.2-1,0.4-2,0.7-3c1.6-6.8,3.9-13.5,6.7-19.8c1.5-3.5,3.3-6.9,5.1-10.2c2.2-3.8,4.6-7.5,7.2-11.1
					c5.1-7,11-13.5,17.6-19.2c0.6-0.5,1.2-1,1.8-1.5c6.4-5.3,13.3-10,20.7-13.9c14.3-7.5,30.2-12,46.3-13.1
					c-10.1,14.3-17.1,30.7-20.3,47.8c-1.6,8.6-2.4,17.4-2.2,26.2c0,0.8,0.1,1.6,0.1,2.5c0.4,9.2,1.8,18.3,4.3,27.2
					c1.2,4.5,2.7,9,4.5,13.3c1.5,3.7,3.2,7.4,5,10.9c3.4,6.5,7.4,12.8,12,18.7c0.1,0.1,0.2,0.3,0.3,0.4c-7.1,8.5-15.4,15.8-24.7,22
					c-4.1,2.7-8.4,5.2-12.8,7.4c-3,1.5-6,2.8-9,4c-0.4,0.2-0.9,0.3-1.3,0.5C205.8,456.7,192.6,459.3,179,459.5z M94.5,342.7
					C82.8,335.8,72.5,327,64,316.5c3.2-13.7,8.7-26.5,16.5-38.1l0.5-0.8c10.3-15.1,24.2-27.8,40.3-36.6c1.4-0.8,2.8-1.5,4.1-2.2
					c0.9-0.5,1.8-0.9,2.8-1.3c6.3-3,13-5.3,19.7-7.1c3.7-1,7.4-1.8,11.2-2.4c4.3-0.7,8.7-1.1,13.1-1.3c8.6-0.4,17.4,0.2,26,1.8
					c0.8,0.1,1.5,0.3,2.3,0.4c8.2,1.7,16.1,4.2,23.7,7.5c14.7,6.5,28.2,16.1,39.1,28c-17.4,1-34.6,5.8-50,13.9
					c-7.8,4.1-15.1,9-21.9,14.7c-0.6,0.5-1.2,1.1-1.9,1.6c-7,6.1-13.2,12.9-18.6,20.3c-2.7,3.8-5.3,7.7-7.6,11.7
					c-2,3.5-3.8,7.1-5.4,10.8c-3,6.7-5.4,13.8-7.1,21c0,0.2-0.1,0.4-0.1,0.6c-11-0.3-22-2.2-32.5-5.6c-4.6-1.5-9.3-3.3-13.8-5.4
					c-3-1.4-5.9-2.9-8.8-4.6C95.3,343.2,94.9,342.9,94.5,342.7z M102.7,179c-0.1-0.4-0.1-0.9-0.2-1.4c-1.9-13.4-1.4-26.9,1.4-40.2
					c12.7-6,26.2-9.7,40.1-10.9l0.9-0.1c2.9-0.2,5.9-0.3,8.8-0.3c15.5,0,30.6,3,45,9c1.5,0.6,2.9,1.2,4.2,1.9
					c0.9,0.4,1.9,0.9,2.8,1.3c6.3,3.1,12.3,6.8,17.8,11c3,2.3,6,4.7,8.8,7.3c3.2,3,6.3,6.1,9.2,9.4c5.7,6.5,10.7,13.7,14.8,21.4
					c0.4,0.7,0.7,1.4,1.1,2c3.8,7.4,6.8,15.2,8.9,23.2c4.1,15.5,5,32.1,2.4,48c-11.7-13-26.1-23.5-42.1-30.5
					c-8-3.5-16.5-6.2-25.1-7.9c-0.8-0.2-1.6-0.3-2.4-0.5c-9.1-1.6-18.3-2.3-27.5-1.9c-4.7,0.2-9.3,0.7-13.9,1.4
					c-4,0.6-7.9,1.5-11.8,2.5c-7.1,1.9-14.1,4.4-20.8,7.5c-0.2,0.1-0.3,0.2-0.5,0.2c-6.6-8.8-12-18.5-15.9-28.9
					c-1.7-4.6-3.2-9.3-4.3-14.1C103.9,185.4,103.2,182.2,102.7,179z M236.6,81c9.3-9.8,20.2-17.9,32.3-23.9
					c12.6,6.2,23.9,14.4,33.5,24.6l0.6,0.7c12.4,13.4,21.7,29.8,26.7,47.4c0.5,1.6,0.8,3,1.2,4.5c0.2,1,0.5,2,0.7,3
					c1.5,6.8,2.3,13.8,2.6,20.8c0.1,3.8,0.1,7.6-0.2,11.4c-0.3,4.4-0.8,8.8-1.6,13.1c-1.6,8.5-4.1,16.9-7.5,24.9
					c-0.3,0.7-0.6,1.4-0.9,2.1c-3.4,7.6-7.7,14.8-12.6,21.5c-9.6,12.9-22,23.9-36,31.8c2.9-17.2,2.1-35.1-2.4-51.9
					c-2.3-8.5-5.4-16.7-9.4-24.6c-0.4-0.7-0.8-1.4-1.1-2.2c-4.4-8.1-9.6-15.8-15.6-22.7c-3.1-3.5-6.3-6.9-9.8-10
					c-3-2.7-6.1-5.3-9.3-7.7c-5.9-4.4-12.3-8.3-18.9-11.6c-0.2-0.1-0.3-0.2-0.5-0.2c2.8-10.7,7-20.9,12.7-30.4
					c2.5-4.2,5.3-8.3,8.4-12.2c2-2.6,4.2-5.1,6.4-7.5C236,81.6,236.3,81.3,236.6,81z M385.7,125.2c2.9,0,5.8,0.1,8.7,0.3
					c0.5,0,0.9,0.1,1.4,0.1c13.5,1.2,26.6,4.6,38.8,10.3c3.1,13.7,3.6,27.7,1.7,41.5l-0.1,0.9c-2.7,18.1-9.8,35.5-20.4,50.5
					c-1,1.3-1.9,2.6-2.8,3.7c-0.6,0.8-1.3,1.6-1.9,2.4c-4.4,5.4-9.4,10.4-14.7,15c-2.9,2.5-5.9,4.8-9.1,7c-3.6,2.5-7.4,4.8-11.3,6.9
					c-7.6,4.1-15.8,7.3-24.2,9.7c-0.7,0.2-1.5,0.4-2.2,0.6c-8.1,2-16.4,3.2-24.7,3.5c-1.4,0-2.7,0.1-4.1,0.1c0,0,0,0,0,0
					c-14.9,0-29.4-2.8-43.2-8.4c15.2-8.5,28.7-20.3,39.1-34.2c5.2-7.1,9.7-14.7,13.3-22.7c0.3-0.7,0.7-1.5,1-2.2
					c3.6-8.5,6.3-17.3,8-26.4c0.8-4.6,1.4-9.2,1.7-13.9c0.3-4,0.3-8.1,0.2-12.1c-0.2-7.4-1.1-14.8-2.7-22c0-0.2-0.1-0.4-0.1-0.6
					c10.1-4.5,20.7-7.5,31.7-9.1c4.8-0.7,9.8-1,14.7-1.1L385.7,125.2z"/>
				<path fill="#FFFFFF" d="M177.5,471.2h-4l-2.5-3.1c-10.1-12.5-17.7-26.5-22.6-41.8l-0.3-0.9c-5.5-17.7-7.1-36.7-4.6-55.1
					c-9.8-0.8-19.5-2.7-28.9-5.8c-5.1-1.6-10.2-3.7-15.1-6c-3.3-1.5-6.5-3.2-9.6-5c-0.4-0.3-0.9-0.5-1.3-0.8
					c-13.4-7.9-25-18.1-34.7-30.2l-2.5-3.1l0.9-3.9c3.4-15.7,9.7-30.4,18.6-43.7l0.5-0.8c10.4-15.3,24.3-28.4,40.2-37.9
					c-5.5-8.2-10-17-13.5-26.2c-1.9-5-3.5-10.3-4.8-15.6c-0.8-3.5-1.5-7.1-2.1-10.7c-0.1-0.5-0.1-0.9-0.2-1.4
					c-2.1-15.4-1.5-30.9,2-46l0.9-3.9l3.6-1.8c14.4-7.1,29.8-11.4,45.7-12.7l1-0.1c3.3-0.2,6.5-0.4,9.7-0.4c15.4,0,30.6,2.7,45,8.2
					c3-9.4,7-18.4,12.1-26.9c2.7-4.6,5.8-9.1,9.2-13.4c2.2-2.9,4.6-5.6,7-8.3c0.3-0.4,0.7-0.7,1-1.1c10.7-11.3,23.2-20.4,37.1-27.1
					l3.6-1.7l3.6,1.7C287,52.7,300,62,310.9,73.6l0.7,0.7c12.6,13.6,22.3,30,28,47.7c9.2-3.5,18.8-6,28.6-7.3
					c5.3-0.7,10.8-1.1,16.2-1.2l1.2,0c3.3,0,6.6,0.1,9.7,0.4c0.5,0,1,0.1,1.5,0.1c15.5,1.3,30.4,5.4,44.3,12.1l3.6,1.7l0.9,3.9
					c3.7,15.7,4.5,31.6,2.2,47.4l-0.1,1c-2.7,18.4-9.6,36.1-19.8,51.6c8.5,5,16.4,11,23.6,17.8c3.9,3.7,7.6,7.7,11,11.9
					c2.3,2.8,4.5,5.7,6.5,8.7c0.3,0.4,0.5,0.8,0.8,1.2l0.1,0.1c8.6,12.9,14.7,27.1,18.1,42.2l0.9,3.9l-2.5,3.1
					c-9.9,12.7-21.9,23.2-35.7,31.3l-0.9,0.5c-16.1,9.3-34.2,15-52.7,16.7c1.4,9.8,1.7,19.7,0.8,29.5c-0.5,5.4-1.3,10.8-2.5,16.1
					c-0.8,3.5-1.7,7.1-2.8,10.5c-0.2,0.5-0.3,1-0.5,1.4c-4.7,14.8-12,28.4-21.7,40.5l-2.5,3.1l-5,0c-15.7,0-31.1-2.8-45.7-8.4
					l-0.9-0.4c-17.3-6.8-33-17.3-45.9-30.8c-6.8,7.2-14.3,13.6-22.5,19c-4.5,3-9.2,5.7-14.1,8.1c-3.2,1.6-6.6,3.1-9.9,4.4
					c-0.4,0.2-0.8,0.3-1.2,0.5l-0.2,0.1C208.1,468.4,192.9,471.2,177.5,471.2z M252.8,277.4c-11.9,1.9-23.5,5.8-34.1,11.3
					c-7,3.7-13.7,8.2-19.8,13.3c-0.6,0.5-1.1,1-1.7,1.4c-6.3,5.5-12,11.7-16.8,18.4c-2.5,3.4-4.8,7-6.8,10.6
					c-1.8,3.2-3.4,6.4-4.9,9.8c-2.7,6.1-4.9,12.5-6.4,19c-0.2,1-0.4,1.9-0.7,2.9c-0.3,1.4-0.6,2.8-0.8,4.4c-3,17.3-1.8,35.3,3.3,52
					l0.3,0.9c3.8,12,9.6,23.1,17.2,33.1c12.1-0.4,23.9-2.8,35.3-7.1c0.4-0.2,0.8-0.3,1.2-0.5c2.9-1.1,5.8-2.4,8.6-3.8
					c4.2-2.1,8.4-4.5,12.3-7.1c7.7-5.1,14.8-11.2,21-18c-3.8-5.2-7.3-10.8-10.3-16.5c-1.9-3.7-3.7-7.5-5.2-11.4
					c-1.8-4.5-3.4-9.1-4.7-13.8c-2.5-9.2-4-18.7-4.4-28.3c0-0.9-0.1-1.7-0.1-2.6c-0.2-9.2,0.5-18.3,2.2-27.3
					C240.1,303.8,245.4,289.9,252.8,277.4z M279.4,415.7c0.1,0.2,0.3,0.3,0.4,0.5c11.7,13.1,26.5,23.4,42.7,29.8l0.8,0.3
					c11.7,4.5,24,6.9,36.6,7.3c7.2-9.7,12.7-20.5,16.4-32c0.1-0.4,0.3-0.8,0.4-1.3c0.9-3,1.7-6.1,2.4-9.1c1-4.6,1.7-9.3,2.1-14
					c0.8-9.2,0.5-18.5-1-27.6c-6.5-0.3-13-1-19.4-2.3c-4.1-0.8-8.2-1.8-12.2-3c-4.6-1.4-9.2-3.1-13.7-5c-8.8-3.8-17.1-8.5-24.9-14.2
					c-0.7-0.5-1.4-1-2-1.5c-7.3-5.5-14-11.8-19.9-18.8c-9.4-10.9-16.9-23.7-22.2-37.2c-5.9,10.5-10.1,21.9-12.3,33.5
					c-1.5,7.8-2.1,15.8-1.9,23.8c0,0.7,0.1,1.5,0.1,2.2c0.4,8.3,1.7,16.6,3.9,24.6c1.1,4.1,2.5,8.1,4,12c1.3,3.3,2.9,6.7,4.5,9.9
					c3.1,5.9,6.7,11.6,10.8,16.9c0.6,0.8,1.2,1.6,1.9,2.3L279.4,415.7z M69.4,315.2c7.9,9.2,17.1,16.9,27.6,23.1
					c0.4,0.2,0.8,0.5,1.1,0.7c2.7,1.6,5.5,3,8.4,4.4c4.3,2,8.7,3.8,13.2,5.2c8.8,2.8,17.9,4.6,27.1,5.2c1.7-6.3,3.9-12.4,6.5-18.4
					c1.7-3.8,3.6-7.6,5.6-11.2c2.4-4.2,5-8.3,7.9-12.2c5.6-7.7,12.1-14.8,19.4-21.1c0.6-0.6,1.3-1.1,1.9-1.7
					c7-5.9,14.7-11,22.7-15.3c12.8-6.7,26.9-11.3,41.3-13.4c-8.9-8.1-19.1-14.7-30-19.5c-7.3-3.2-14.9-5.6-22.7-7.2
					c-0.7-0.1-1.4-0.3-2-0.4l-0.1,0c-8.2-1.5-16.6-2.1-24.9-1.7c-4.2,0.2-8.4,0.6-12.6,1.3c-3.6,0.6-7.2,1.3-10.7,2.2
					c-6.5,1.7-12.8,4-18.9,6.8c-0.9,0.4-1.8,0.8-2.7,1.3c-1.3,0.6-2.5,1.3-3.9,2.1c-15.4,8.5-28.7,20.6-38.6,35l-0.5,0.7
					C77.7,291.6,72.6,303,69.4,315.2z M282.4,283.4c4.5,11.1,10.8,21.6,18.6,30.6c5.2,6,11,11.5,17.4,16.3c0.6,0.4,1.1,0.9,1.7,1.3
					c6.8,5,14.1,9.1,21.7,12.4c3.9,1.7,7.9,3.1,11.9,4.3c3.5,1,7,1.9,10.6,2.6c6.6,1.3,13.3,2,19.9,2c1,0,2,0,2.9,0
					c1.4,0,2.9-0.1,4.4-0.2c17.5-0.9,34.8-6.1,49.9-14.8l0.8-0.5c10.8-6.4,20.4-14.5,28.5-24.1c-3.1-11.7-8.1-22.7-14.8-32.8
					c-0.3-0.5-0.5-0.8-0.7-1.1c-1.7-2.6-3.6-5.1-5.6-7.6c-3-3.7-6.2-7.2-9.6-10.4c-6.7-6.4-14.1-11.9-22.2-16.4
					c-4.3,4.9-8.9,9.5-13.8,13.7c-3.2,2.7-6.5,5.3-10,7.7c-4,2.8-8.1,5.3-12.4,7.6c-8.4,4.5-17.4,8.1-26.6,10.6
					c-0.8,0.2-1.6,0.4-2.5,0.7c-8.9,2.3-18,3.6-27.1,3.9c-1.5,0.1-3,0.1-4.5,0.1C307.7,289.3,294.8,287.4,282.4,283.4z M289.3,268.1
					c11.5,3.4,23.4,5,35.5,4.5c7.9-0.3,15.9-1.4,23.6-3.4c0.7-0.2,1.4-0.4,2.1-0.6c8.1-2.2,15.8-5.3,23.1-9.2
					c3.7-2,7.3-4.2,10.8-6.6c3-2.1,5.9-4.3,8.7-6.7c5.1-4.3,9.8-9.1,14-14.3c0.6-0.8,1.2-1.5,1.8-2.3c0.9-1.1,1.7-2.3,2.6-3.6
					c10.2-14.3,17-31,19.5-48.3l0.1-0.9c1.8-12.4,1.4-25-1.1-37.3c-11.1-4.8-22.8-7.8-34.9-8.9c-0.5,0-0.9-0.1-1.3-0.1
					c-2.7-0.2-5.5-0.3-8.3-0.3l-1.2,0c-4.7,0-9.5,0.4-14.1,1c-9.2,1.3-18.1,3.6-26.7,7.1c1.2,6.4,1.9,12.9,2.1,19.4
					c0.1,4.2,0.1,8.4-0.2,12.6c-0.3,4.8-0.9,9.7-1.8,14.4c-1.7,9.4-4.5,18.6-8.3,27.4c-0.3,0.8-0.7,1.6-1,2.3
					c-3.8,8.3-8.4,16.3-13.9,23.6C312.1,249.7,301.4,259.9,289.3,268.1z M214.2,129.5c5.7,3.1,11.3,6.6,16.5,10.4
					c3.3,2.5,6.6,5.2,9.7,8c3.6,3.3,7,6.8,10.2,10.4c6.3,7.2,11.7,15.1,16.3,23.6c0.4,0.7,0.8,1.5,1.2,2.2
					c4.2,8.2,7.5,16.8,9.8,25.6c3.7,14,5,28.7,3.8,43.3c9.9-6.9,18.6-15.4,25.7-24.9c4.7-6.4,8.8-13.3,12.1-20.6
					c0.3-0.7,0.6-1.4,0.9-2c3.3-7.7,5.7-15.7,7.2-23.9c0.8-4.1,1.3-8.4,1.6-12.5c0.2-3.6,0.3-7.3,0.2-10.9c-0.2-6.7-1-13.4-2.4-19.9
					c-0.2-1-0.4-1.9-0.7-2.9c-0.3-1.4-0.7-2.8-1.1-4.3c-4.8-16.9-13.7-32.6-25.6-45.4l-0.6-0.6c-8.6-9.1-18.7-16.7-29.9-22.4
					c-10.7,5.6-20.3,12.9-28.7,21.7c-0.3,0.3-0.6,0.6-0.9,1c-2.1,2.3-4.2,4.7-6.1,7.2c-2.9,3.7-5.6,7.7-8,11.7
					C220.5,112.2,216.8,120.7,214.2,129.5z M177.2,214.9c7.7,0,15.5,0.7,23.1,2.1c0.8,0.2,1.7,0.3,2.5,0.5c9,1.8,17.8,4.6,26.1,8.3
					c13.2,5.8,25.6,14,36.2,24c0.8-12-0.4-24.1-3.5-35.6c-2-7.7-4.9-15.2-8.6-22.3c-0.3-0.7-0.7-1.3-1-2c-4-7.4-8.7-14.3-14.2-20.5
					c-2.8-3.2-5.7-6.2-8.8-9c-2.7-2.4-5.5-4.8-8.4-7c-5.3-4-11.1-7.5-17.1-10.5c-0.9-0.4-1.8-0.9-2.7-1.3c-1.3-0.6-2.6-1.2-4.1-1.8
					c-13.7-5.7-28.2-8.6-43-8.6c-2.8,0-5.6,0.1-8.4,0.3l-0.9,0.1c-12.5,1.1-24.7,4.2-36.1,9.4c-2.3,11.9-2.6,24-0.9,36
					c0.1,0.5,0.1,0.9,0.2,1.3c0.5,3.1,1.1,6.2,1.8,9.3c1.1,4.6,2.5,9.2,4.1,13.5c3.3,8.7,7.6,16.9,12.9,24.4
					c6-2.6,12.1-4.7,18.4-6.4c4-1.1,8.2-1.9,12.3-2.6c4.8-0.8,9.6-1.2,14.5-1.5C173.5,215,175.3,214.9,177.2,214.9z"/>
			</g>
		</g>
		<g>
			<g>
				<g>
					<path fill="#FFFFFF" d="M662.8,322.8h-17.3c-4.9,0-9-1.6-12.1-4.8c-3.1-3.2-4.7-7.3-4.7-12.4v-68.7c0-8.1-2.4-14-7.2-17.7
						c-4.8-3.7-10.2-5.5-16.1-5.5c-6,0-11.3,1.9-15.9,5.5c-4.6,3.7-7,9.6-7,17.7v85.9h-34.7v-78.9c0-22.9,5.9-38.2,17.6-46
						c11.7-7.8,24.7-12,38.9-12.7c14.6,0,28,3.9,40.2,11.6c12.2,7.8,18.3,23.4,18.3,47V322.8z"/>
					<path fill="#FFFFFF" d="M783.4,188.3v78.9c0,23.9-6.2,39.6-18.4,47c-12.2,7.4-25.7,11.1-40.2,11.1
						c-14.2-0.7-27.2-4.7-38.9-12.1c-11.8-7.4-17.6-22.8-17.6-46v-78.9H703v85.9c0,8.1,2.3,13.9,6.9,17.7c4.6,3.7,9.9,5.6,15.9,5.6
						c5.9,0,11.3-1.8,16.1-5.6c4.8-3.7,7.2-9.6,7.2-17.7v-68.7c0-4.7,1.5-8.8,4.7-12.1c3.1-3.4,7.2-5.1,12.2-5.1H783.4z"/>
					<path fill="#FFFFFF" d="M785.8,278.3h33.7c0.3,6.7,2.8,11.8,7.5,15.1c4.9,3.4,11.5,5.1,19.8,5.1c6,0,11-1.2,15.3-3.5
						c4-2.4,6-5.6,6-9.6c0-6-6.9-10.6-20.8-13.6c-6-1-10.4-2-13.4-3c-17.6-4.4-29.3-9.6-35.2-15.7c-6.6-6-9.9-14.1-9.9-24.2
						c0-12.8,4.8-23.4,14.4-31.9c9.9-7.7,22.8-11.6,38.7-11.6c17.2,0,30.9,3.9,41.2,11.6c9.6,8.4,14.6,19.4,15.3,32.9h-21.3
						c-6.3,0-11.1-2.9-14.4-8.6c-1.3-1.4-2.6-2.7-3.9-4.1c-4-3-9.4-4.5-16.3-4.5c-6.6,0-11.6,1-14.9,3c-3,2.1-4.5,5.1-4.5,9.1
						c0,5.4,8.6,9.9,25.8,13.6c2,0.7,3.7,1.2,5.2,1.5c1.4,0.4,2.9,0.5,4.2,0.5c16.9,4.4,28.6,9.5,35.2,15.2c6.3,6,9.4,14.1,9.4,24.2
						c0,14.8-5.3,26.3-15.8,34.4c-9.9,7.4-24.8,11.1-44.6,11.1c-18.9,0-32.9-3.9-42.2-11.6c-9.6-7.7-14.4-19-14.4-33.9V278.3z"/>
					<path fill="#FFFFFF" d="M995.6,355.1v-50c-4.3,7-9.6,12.3-15.8,15.6c-6.7,3-13.9,4.5-21.8,4.5c-15.9,0-28.7-6.4-38.2-19.2
						c-9.6-12.5-14.4-29.6-14.4-51.6c0-20.9,4.8-37.7,14.4-50.5c4.9-6,11.5-10.7,19.8-13.9c8.2-3.2,16.6-4.8,25.3-4.8
						c15.8,0,30.6,4.3,44.1,12.9c13.5,8.6,20.3,24.7,20.3,48.3v125.9h-16.9c-4.6,0-8.7-1.7-11.9-5.1
						C997.2,363.9,995.6,359.8,995.6,355.1z M939.1,256c0,12.1,2.5,21.7,7.4,28.8c4.9,7.1,11.7,10.6,20.3,10.6
						c9.3,0,16.3-3.6,21.3-10.6c5-6.4,7.4-16,7.4-28.8c0-13.1-2.3-23.2-6.9-30.3c-5-7.1-11.9-10.6-20.9-10.6
						c-9.2,0-16.4,3.5-21.3,10.6C941.6,232.8,939.1,242.9,939.1,256z"/>
					<path fill="#FFFFFF" d="M1150.3,188.3v78.9c0,23.9-6.1,39.6-18.3,47c-12.3,7.4-25.7,11.1-40.2,11.1c-14.2-0.7-27.2-4.7-39-12.1
						c-11.7-7.4-17.6-22.8-17.6-46v-78.9h34.8v85.9c0,8.1,2.3,13.9,6.9,17.7c4.6,3.7,9.9,5.6,15.9,5.6c5.9,0,11.3-1.8,16.1-5.6
						c4.8-3.7,7.2-9.6,7.2-17.7v-68.7c0-4.7,1.5-8.8,4.7-12.1c3.1-3.4,7.2-5.1,12.1-5.1H1150.3z"/>
					<path fill="#FFFFFF" d="M1240.2,317.2c-7,3.7-14.4,6-22.1,6.8c-7.8,0.9-14.6,1.3-20.6,1.3c-11.9,0-22.3-3.3-31.3-9.8
						c-8.9-6.6-13.4-17.5-13.4-32.6c0-14.1,4-24.3,12.1-30.3c8.1-6.1,18.4-10.1,31-12.2c1.6,0,3.6-0.2,6-0.7
						c2.3-0.5,4.9-0.9,7.9-1.3c14.6-2,21.8-6.4,21.8-13.1c0-5-2.6-8.3-7.7-9.8c-5.1-1.5-9.9-2.3-14.2-2.3c-4.6,0-8.8,0.7-12.4,2
						c-3.7,1.3-6.3,3.9-7.9,7.6h-33.3c1.3-10.4,5.9-19.1,13.9-25.8c9-7.7,21.7-11.6,38.2-11.6c18.5,0,32.4,3.2,41.6,9.6
						c9.6,6.7,14.4,16.2,14.4,28.3v46c0,13.5-2.4,24-7.2,31.6C1252.4,308.3,1246.7,313.8,1240.2,317.2z M1232.2,255.1
						c-4.6,2.3-11,4.5-19.3,6.5l-11.4,2.5c-6,1.7-10.3,3.9-12.9,6.6c-2.3,3.8-3.5,7.4-3.5,11.1c0,5,1.5,9.1,4.5,12.1
						c2.9,2.7,7.2,4,12.9,4c9.2,0,16.5-2.7,21.8-8.1c5.3-5.4,7.9-12.8,7.9-22.2V255.1z"/>
					<path fill="#FFFFFF" d="M1384.5,322.8h-34.2v-78.9v-7.1c0-8.1-2.4-14-7.2-17.7c-4.8-3.7-10.2-5.5-16.1-5.5
						c-6,0-11.3,1.9-15.9,5.5c-4.6,3.7-6.9,9.6-6.9,17.7v85.9h-34.7v-78.9c0-22.9,5.9-38.2,17.6-46c11.7-7.8,24.7-12,39-12.7
						c7.6,0,15,0.8,22.3,2.5c7.3,1.7,13.9,5.1,19.9,10.1c5-4.4,10.8-7.5,17.6-9.3c6.8-1.9,13.8-3,21.1-3.3
						c14.5,0,27.9,3.9,40.2,11.6c12.2,7.8,18.4,23.4,18.4,47v78.9h-17.4c-5,0-9-1.6-12.1-4.8c-3.1-3.2-4.7-7.3-4.7-12.4v-68.7
						c0-8.1-2.4-14-7.2-17.7c-4.8-3.7-10.2-5.5-16.1-5.5c-5.9,0-11.3,1.9-16.1,5.5c-4.8,3.7-7.2,9.6-7.2,17.7v7.1V322.8z"/>
					<path fill="#FFFFFF" d="M1559,317.2c-6.9,3.7-14.3,6-22.1,6.8c-7.8,0.9-14.6,1.3-20.6,1.3c-11.9,0-22.3-3.3-31.3-9.8
						c-8.9-6.6-13.4-17.5-13.4-32.6c0-14.1,4-24.3,12.1-30.3c8.1-6.1,18.4-10.1,31-12.2c1.7,0,3.6-0.2,5.9-0.7c2.3-0.5,5-0.9,8-1.3
						c14.5-2,21.8-6.4,21.8-13.1c0-5-2.6-8.3-7.7-9.8c-5.2-1.5-9.8-2.3-14.1-2.3c-4.6,0-8.7,0.7-12.4,2c-3.7,1.3-6.3,3.9-7.9,7.6
						h-33.3c1.3-10.4,6-19.1,13.9-25.8c8.9-7.7,21.7-11.6,38.2-11.6c18.5,0,32.4,3.2,41.7,9.6c9.6,6.7,14.4,16.2,14.4,28.3v46
						c0,13.5-2.4,24-7.1,31.6C1571.3,308.3,1565.6,313.8,1559,317.2z M1551.1,255.1c-4.6,2.3-11.1,4.5-19.3,6.5l-11.4,2.5
						c-5.9,1.7-10.3,3.9-12.9,6.6c-2.3,3.8-3.5,7.4-3.5,11.1c0,5,1.5,9.1,4.5,12.1c3,2.7,7.3,4,12.9,4c9.2,0,16.5-2.7,21.8-8.1
						c5.3-5.4,7.9-12.8,7.9-22.2V255.1z"/>
				</g>
			</g>
		</g>
	</g>
</g>
</svg>
